<?xml version="1.0" encoding="utf-8"?>
<!-- Generator: Adobe Illustrator 25.2.1, SVG Export Plug-In . SVG Version: 6.00 Build 0)  -->
<svg version="1.1" id="Layer_1" xmlns="http://www.w3.org/2000/svg" xmlns:xlink="http://www.w3.org/1999/xlink" x="0px" y="0px"
	 viewBox="0 0 16 16" style="enable-background:new 0 0 16 16;" xml:space="preserve">
<style type="text/css">
	.st0{fill:#7F7F7F;}
</style>
<g>
	<path class="st0" d="M13.8,6.4c-0.1-0.5-0.3-1-0.6-1.4s-0.6-0.9-0.9-1.2S11.5,3.1,11,2.8s-0.9-0.5-1.4-0.6S8.6,2,8,2
		C7.4,2,6.9,2.1,6.4,2.2S5.4,2.6,5,2.8S4.1,3.4,3.8,3.8S3.1,4.5,2.8,5S2.4,5.9,2.2,6.4S2,7.4,2,8c0,0.6,0.1,1.1,0.2,1.6
		s0.3,1,0.6,1.4s0.6,0.9,0.9,1.2s0.8,0.7,1.2,0.9s0.9,0.5,1.4,0.6S7.4,14,8,14s1.1-0.1,1.6-0.2s1-0.3,1.4-0.6s0.8-0.6,1.2-0.9
		s0.7-0.8,0.9-1.2s0.5-0.9,0.6-1.4S14,8.6,14,8S13.9,6.9,13.8,6.4z M13.1,9.4c-0.1,0.4-0.3,0.9-0.5,1.3s-0.5,0.7-0.8,1.1
		s-0.7,0.6-1.1,0.8s-0.8,0.4-1.3,0.5S8.5,13.2,8,13.2c-0.5,0-0.9-0.1-1.4-0.2s-0.9-0.3-1.3-0.5S4.6,12,4.3,11.7S3.7,11,3.5,10.6
		c-0.2-0.4-0.4-0.8-0.5-1.3S2.7,8.5,2.7,8s0.1-0.9,0.2-1.4s0.3-0.9,0.5-1.3C3.7,5,4,4.6,4.3,4.3S5,3.7,5.4,3.5s0.8-0.4,1.3-0.5
		S7.5,2.8,8,2.8s0.9,0.1,1.4,0.2s0.9,0.3,1.3,0.5s0.7,0.5,1.1,0.8s0.6,0.7,0.8,1.1s0.4,0.8,0.5,1.3s0.2,0.9,0.2,1.4
		C13.3,8.5,13.2,8.9,13.1,9.4z"/>
	<polygon class="st0" points="12.1,11.6 4.2,3.7 3.7,4.2 11.8,12.3 	"/>
</g>
</svg>
