<?xml version="1.0" encoding="utf-8"?>
<!-- Generator: Adobe Illustrator 25.2.0, SVG Export Plug-In . SVG Version: 6.00 Build 0)  -->
<svg version="1.1" id="Layer_1" xmlns="http://www.w3.org/2000/svg" xmlns:xlink="http://www.w3.org/1999/xlink" x="0px" y="0px"
	 viewBox="0 0 24 24" style="enable-background:new 0 0 24 24;" xml:space="preserve">
<style type="text/css">
	.st0{display:none;}
	.st1{display:inline;}
	.st2{fill:#FFFFFF;}
</style>
<g class="st0">
	<path class="st1" d="M9.8,0.9h1.3v22.2H9.8l-5.6-5.6H0V6.4h4.2L9.8,0.9z M9.3,4.1L5,8.3H1.9v7.4H5l4.2,4.2V4.1H9.3z M19.7,12l4,4
		l-1.3,1.3l-4-4l-4,4L13.1,16l4-4l-4-4l1.3-1.3l4,4l4-4L23.6,8L19.7,12z"/>
</g>
<g>
	<path class="st2" d="M12,20.1c0.7,0,1.3-0.1,1.9-0.2c0.6-0.2,1.2-0.4,1.8-0.7l0.6,1.2c-0.7,0.4-1.4,0.6-2.1,0.8
		c-0.7,0.2-1.5,0.3-2.3,0.3c-0.9,0-1.7-0.1-2.5-0.3c-0.8-0.2-1.6-0.5-2.3-1c-0.7-0.4-1.3-0.9-1.9-1.5c-0.6-0.6-1.1-1.2-1.5-1.9
		s-0.7-1.5-1-2.3c-0.2-0.8-0.3-1.6-0.3-2.5s0.1-1.7,0.3-2.5c0.2-0.8,0.5-1.6,1-2.3s0.9-1.3,1.5-1.9s1.2-1.1,1.9-1.5s1.5-0.7,2.3-1
		c0.8-0.2,1.6-0.3,2.5-0.3c0.8,0,1.5,0.1,2.3,0.3C15,3,15.7,3.3,16.4,3.6l-0.6,1.2c-0.6-0.3-1.2-0.5-1.8-0.7C13.3,4,12.7,3.9,12,3.9
		c-0.7,0-1.5,0.1-2.2,0.3C9.2,4.4,8.5,4.7,7.9,5S6.8,5.8,6.3,6.3S5.4,7.3,5,7.9S4.4,9.2,4.2,9.8C4,10.5,3.9,11.3,3.9,12
		s0.1,1.5,0.3,2.2c0.2,0.7,0.5,1.3,0.8,1.9s0.8,1.1,1.3,1.6s1,0.9,1.6,1.3s1.2,0.6,1.9,0.8C10.5,20,11.3,20.1,12,20.1z M9.7,9.3
		l2.7-2.7h1v10.8h-1l-2.7-2.7H6.6V9.3H9.7z"/>
</g>
<path class="st0" d="M12,20.1c0.7,0,1.3-0.1,1.9-0.2c0.6-0.2,1.2-0.4,1.8-0.7l0.6,1.2c-0.7,0.4-1.4,0.6-2.1,0.8
	c-0.7,0.2-1.5,0.3-2.3,0.3c-0.9,0-1.7-0.1-2.5-0.3c-0.8-0.2-1.6-0.5-2.3-1c-0.7-0.4-1.3-0.9-1.9-1.5c-0.6-0.6-1.1-1.2-1.5-1.9
	s-0.7-1.5-1-2.3c-0.2-0.8-0.3-1.6-0.3-2.5s0.1-1.7,0.3-2.5c0.2-0.8,0.5-1.6,1-2.3s0.9-1.3,1.5-1.9s1.2-1.1,1.9-1.5s1.5-0.7,2.3-1
	c0.8-0.2,1.6-0.3,2.5-0.3c0.8,0,1.5,0.1,2.3,0.3C15,3,15.7,3.3,16.4,3.6l-0.6,1.2c-0.6-0.3-1.2-0.5-1.8-0.7C13.3,4,12.7,3.9,12,3.9
	c-0.7,0-1.5,0.1-2.2,0.3S8.5,4.7,7.9,5S6.8,5.8,6.3,6.3S5.4,7.3,5,7.9S4.4,9.2,4.2,9.8C4,10.5,3.9,11.3,3.9,12s0.1,1.5,0.3,2.2
	c0.2,0.7,0.5,1.3,0.8,1.9s0.8,1.1,1.3,1.6s1,0.9,1.6,1.3s1.2,0.6,1.9,0.8S11.3,20.1,12,20.1z M9.7,9.3l2.7-2.7h1v10.8h-1l-2.7-2.7
	H6.6V9.3H9.7z M16.8,7.2c0.6,0.6,1.1,1.4,1.5,2.2s0.5,1.7,0.5,2.6s-0.2,1.8-0.5,2.6s-0.8,1.6-1.5,2.2l-1-1c0.5-0.5,0.9-1.1,1.2-1.7
	c0.3-0.7,0.4-1.3,0.4-2.1s-0.1-1.4-0.4-2.1c-0.3-0.7-0.7-1.2-1.2-1.7L16.8,7.2z M18.7,5.3c0.9,0.9,1.6,1.9,2,3.1
	c0.5,1.1,0.7,2.4,0.7,3.6s-0.2,2.5-0.7,3.6c-0.5,1.1-1.2,2.2-2,3.1l-1-1c0.8-0.8,1.4-1.6,1.8-2.6c0.4-1,0.6-2,0.6-3.1
	s-0.2-2.1-0.6-3.1c-0.4-1-1-1.9-1.8-2.6L18.7,5.3z"/>
</svg>
