<?xml version="1.0" encoding="utf-8"?>
<!-- Generator: Adobe Illustrator 25.2.0, SVG Export Plug-In . SVG Version: 6.00 Build 0)  -->
<svg version="1.1" id="Layer_1" xmlns="http://www.w3.org/2000/svg" xmlns:xlink="http://www.w3.org/1999/xlink" x="0px" y="0px"
	 viewBox="0 0 16 16" style="enable-background:new 0 0 16 16;" xml:space="preserve">
<style type="text/css">
	.st0{fill:#FFFFFF;}
</style>
<g>
	<path class="st0" d="M15.6,5.9c-0.2-0.7-0.5-1.3-0.8-1.9c-0.3-0.6-0.8-1.1-1.2-1.6s-1-0.9-1.6-1.2s-1.2-0.6-1.9-0.8
		C9.4,0.2,8.7,0.1,8,0.1c-0.7,0-1.4,0.1-2.1,0.3S4.6,0.8,4,1.2S2.9,1.9,2.4,2.4S1.5,3.4,1.2,4C0.8,4.6,0.6,5.2,0.4,5.9
		C0.2,6.6,0.1,7.3,0.1,8c0,0.7,0.1,1.4,0.3,2.1c0.2,0.7,0.5,1.3,0.8,1.9c0.3,0.6,0.8,1.1,1.2,1.6s1,0.9,1.6,1.2s1.2,0.6,1.9,0.8
		c0.7,0.2,1.4,0.3,2.1,0.3c0.7,0,1.4-0.1,2.1-0.3c0.7-0.2,1.3-0.5,1.9-0.8s1.1-0.8,1.6-1.2s0.9-1,1.2-1.6c0.3-0.6,0.6-1.2,0.8-1.9
		c0.2-0.7,0.3-1.4,0.3-2.1S15.8,6.6,15.6,5.9z M14.7,9.8c-0.2,0.6-0.4,1.1-0.7,1.7s-0.7,1-1.1,1.4c-0.4,0.4-0.9,0.8-1.4,1.1
		s-1.1,0.5-1.7,0.7c-0.6,0.2-1.2,0.2-1.8,0.2c-0.6,0-1.3-0.1-1.8-0.2S5,14.3,4.5,14s-1-0.7-1.4-1.1C2.7,12.5,2.3,12,2,11.5
		s-0.5-1.1-0.7-1.7C1.2,9.2,1.1,8.6,1.1,8s0.1-1.2,0.2-1.8C1.5,5.6,1.7,5,2,4.5s0.7-1,1.1-1.4C3.5,2.7,4,2.3,4.5,2s1.1-0.5,1.7-0.7
		S7.4,1.1,8,1.1s1.2,0.1,1.8,0.2C10.4,1.5,11,1.7,11.5,2s1,0.7,1.4,1.1C13.3,3.5,13.7,4,14,4.5s0.5,1.1,0.7,1.7
		c0.2,0.6,0.2,1.2,0.2,1.8C14.9,8.6,14.8,9.3,14.7,9.8z"/>
</g>
</svg>
