<?xml version="1.0" encoding="utf-8"?>
<!-- Generator: Adobe Illustrator 25.2.0, SVG Export Plug-In . SVG Version: 6.00 Build 0)  -->
<svg version="1.1" id="Layer_1" xmlns="http://www.w3.org/2000/svg" xmlns:xlink="http://www.w3.org/1999/xlink" x="0px" y="0px"
	 viewBox="0 0 16 16" style="enable-background:new 0 0 16 16;" xml:space="preserve">
<style type="text/css">
	.st0{fill:#FFFFFF;}
	.st1{fill:#68768A;}
</style>
<g>
	<path class="st0" d="M15.6,5.9c-0.2-0.7-0.5-1.3-0.8-1.9c-0.3-0.6-0.8-1.1-1.2-1.6s-1-0.9-1.6-1.2s-1.2-0.6-1.9-0.8
		C9.4,0.2,8.7,0.1,8,0.1c-0.7,0-1.4,0.1-2.1,0.3S4.6,0.8,4,1.2S2.9,1.9,2.4,2.4S1.5,3.4,1.2,4C0.8,4.6,0.6,5.2,0.4,5.9
		C0.2,6.6,0.1,7.3,0.1,8c0,0.7,0.1,1.4,0.3,2.1c0.2,0.7,0.5,1.3,0.8,1.9c0.3,0.6,0.8,1.1,1.2,1.6s1,0.9,1.6,1.2s1.2,0.6,1.9,0.8
		c0.7,0.2,1.4,0.3,2.1,0.3c0.7,0,1.4-0.1,2.1-0.3c0.7-0.2,1.3-0.5,1.9-0.8s1.1-0.8,1.6-1.2s0.9-1,1.2-1.6c0.3-0.6,0.6-1.2,0.8-1.9
		c0.2-0.7,0.3-1.4,0.3-2.1S15.8,6.6,15.6,5.9z M14.7,9.8c-0.2,0.6-0.4,1.1-0.7,1.7s-0.7,1-1.1,1.4c-0.4,0.4-0.9,0.8-1.4,1.1
		s-1.1,0.5-1.7,0.7c-0.6,0.2-1.2,0.2-1.8,0.2c-0.6,0-1.3-0.1-1.8-0.2S5,14.3,4.5,14s-1-0.7-1.4-1.1C2.7,12.5,2.3,12,2,11.5
		s-0.5-1.1-0.7-1.7C1.2,9.2,1.1,8.6,1.1,8s0.1-1.2,0.2-1.8C1.5,5.6,1.7,5,2,4.5s0.7-1,1.1-1.4C3.5,2.7,4,2.3,4.5,2s1.1-0.5,1.7-0.7
		S7.4,1.1,8,1.1s1.2,0.1,1.8,0.2C10.4,1.5,11,1.7,11.5,2s1,0.7,1.4,1.1C13.3,3.5,13.7,4,14,4.5s0.5,1.1,0.7,1.7
		c0.2,0.6,0.2,1.2,0.2,1.8C14.9,8.6,14.8,9.3,14.7,9.8z"/>
	<path class="st1" d="M12.5,5.4C12.3,5,12,4.6,11.7,4.3C11.4,4,11,3.7,10.6,3.5C10.2,3.3,9.8,3.1,9.4,3C8.9,2.9,8.5,2.8,8,2.8
		C7.5,2.8,7.1,2.9,6.6,3C6.2,3.1,5.8,3.3,5.4,3.5C5,3.7,4.6,4,4.3,4.3C4,4.6,3.7,5,3.5,5.4S3.1,6.2,3,6.6C2.9,7.1,2.8,7.5,2.8,8
		S2.9,8.9,3,9.4c0.1,0.4,0.3,0.9,0.5,1.2s0.5,0.7,0.8,1.1C4.6,12,5,12.3,5.4,12.5c0.4,0.2,0.8,0.4,1.2,0.5c0.4,0.1,0.9,0.2,1.4,0.2
		c0.5,0,0.9-0.1,1.4-0.2c0.4-0.1,0.9-0.3,1.2-0.5c0.4-0.2,0.7-0.5,1.1-0.8c0.3-0.3,0.6-0.7,0.8-1.1s0.4-0.8,0.5-1.2
		c0.1-0.4,0.2-0.9,0.2-1.4S13.1,7.1,13,6.6C12.9,6.2,12.7,5.8,12.5,5.4z"/>
</g>
</svg>
