<?xml version="1.0" encoding="utf-8"?>
<!-- Generator: Adobe Illustrator 25.2.0, SVG Export Plug-In . SVG Version: 6.00 Build 0)  -->
<svg version="1.1" id="Layer_1" xmlns="http://www.w3.org/2000/svg" xmlns:xlink="http://www.w3.org/1999/xlink" x="0px" y="0px"
	 viewBox="0 0 24 24" style="enable-background:new 0 0 24 24;" xml:space="preserve">
<style type="text/css">
	.st0{fill:#FFFFFF;}
</style>
<g>
	<path class="st0" d="M12,22c1.1,0,2.2-0.2,3.3-0.5s2-0.8,2.9-1.5c0.9-0.6,1.6-1.4,2.3-2.3s1.1-1.9,1.5-3l1.4,0.4
		c-0.4,1.2-0.9,2.4-1.7,3.4S20,20.3,19,21.1s-2.1,1.3-3.3,1.7c-1.2,0.4-2.4,0.6-3.7,0.6c-1,0-2-0.1-3-0.4s-1.9-0.6-2.7-1.1
		c-0.9-0.5-1.6-1.1-2.4-1.7S2.6,18.7,2,17.8v2.7H0.6v-5.7h5.7v1.4H2.8c0.4,0.9,1,1.7,1.6,2.4c0.6,0.7,1.4,1.3,2.2,1.8
		s1.7,0.9,2.6,1.1C10.1,21.8,11,22,12,22z M23.4,3.5v5.7h-5.7V7.7h3.5c-0.4-0.9-1-1.7-1.6-2.4s-1.4-1.3-2.2-1.8
		c-0.8-0.5-1.7-0.9-2.6-1.1C13.9,2.2,13,2,12,2c-1.1,0-2.2,0.2-3.3,0.5S6.7,3.4,5.8,4S4.2,5.5,3.6,6.4s-1.1,1.9-1.5,3L0.8,8.9
		c0.4-1.2,0.9-2.4,1.7-3.4S4,3.7,5,2.9s2.1-1.3,3.3-1.7s2.4-0.6,3.7-0.6c1,0,2,0.1,3,0.4s1.9,0.6,2.7,1.1s1.6,1.1,2.4,1.7
		c0.7,0.7,1.4,1.5,1.9,2.3V3.5H23.4z"/>
</g>
</svg>
