<?xml version="1.0" encoding="utf-8"?>
<!-- Generator: Adobe Illustrator 25.2.0, SVG Export Plug-In . SVG Version: 6.00 Build 0)  -->
<svg version="1.1" id="Layer_1" xmlns="http://www.w3.org/2000/svg" xmlns:xlink="http://www.w3.org/1999/xlink" x="0px" y="0px"
	 viewBox="0 0 24 24" style="enable-background:new 0 0 24 24;" xml:space="preserve">
<style type="text/css">
	.st0{fill:#FFFFFF;}
</style>
<g>
	<path class="st0" d="M12.1,0.3c1.1,0,2.1,0.1,3.1,0.4s1.9,0.7,2.8,1.2s1.7,1.1,2.4,1.8c0.7,0.7,1.3,1.5,1.8,2.4
		C22.6,7,23,7.9,23.3,8.9c0.3,1,0.4,2,0.4,3.1s-0.1,2.1-0.4,3.1c-0.3,1-0.7,1.9-1.2,2.8c-0.5,0.9-1.1,1.7-1.8,2.4
		c-0.7,0.7-1.5,1.3-2.4,1.8c-0.9,0.5-1.8,0.9-2.8,1.2c-1,0.3-2,0.4-3.1,0.4c-1.3,0-2.6-0.2-3.8-0.6C7.1,22.6,6,22,5,21.3
		c-1-0.8-1.9-1.7-2.6-2.7c-0.7-1-1.3-2.2-1.6-3.5l1.4-0.4c0.3,1.1,0.8,2.1,1.4,3c0.6,0.9,1.4,1.7,2.3,2.4s1.8,1.2,2.9,1.5
		s2.2,0.6,3.3,0.6c0.9,0,1.8-0.1,2.7-0.4c0.9-0.2,1.7-0.6,2.4-1c0.8-0.4,1.4-1,2.1-1.6c0.6-0.6,1.2-1.3,1.6-2.1s0.8-1.6,1-2.4
		s0.4-1.8,0.4-2.7c0-0.9-0.1-1.8-0.4-2.7s-0.6-1.7-1-2.4s-1-1.4-1.6-2.1c-0.6-0.6-1.3-1.2-2.1-1.6c-0.8-0.4-1.6-0.8-2.4-1
		c-0.9-0.2-1.8-0.4-2.7-0.4c-1,0-1.9,0.1-2.9,0.4S7.4,2.8,6.6,3.3S5.1,4.5,4.4,5.2S3.2,6.7,2.8,7.6h3.4v1.5H0.4V3.2h1.5v3.1
		C2.3,5.4,3,4.6,3.7,3.8s1.5-1.4,2.4-1.9S7.9,1,9,0.7S11,0.3,12.1,0.3z"/>
</g>
</svg>
