<?xml version="1.0" encoding="utf-8"?>
<!-- Generator: Adobe Illustrator 25.2.0, SVG Export Plug-In . SVG Version: 6.00 Build 0)  -->
<svg version="1.1" id="Layer_1" xmlns="http://www.w3.org/2000/svg" xmlns:xlink="http://www.w3.org/1999/xlink" x="0px" y="0px"
	 viewBox="0 0 8 8" style="enable-background:new 0 0 8 8;" xml:space="preserve">
<style type="text/css">
	.st0{fill:#FFFFFF;}
</style>
<g>
	<path class="st0" d="M7,1.4v6.1c0,0.1,0,0.1,0,0.2c0,0.1-0.1,0.1-0.1,0.2c0,0-0.1,0.1-0.2,0.1C6.6,8,6.6,8,6.5,8h-5
		C1.4,8,1.4,8,1.3,8c-0.1,0-0.1-0.1-0.2-0.1c0,0-0.1-0.1-0.1-0.2c0-0.1,0-0.1,0-0.2v-2L1.5,5V3.6L1,3V0.5c0-0.1,0-0.1,0-0.2
		c0-0.1,0.1-0.1,0.1-0.2c0,0,0.1-0.1,0.2-0.1c0.1,0,0.1,0,0.2,0h4.1L7,1.4z M6.5,1.6L5.4,0.5H1.5v2.3L2,3.4v1.8
		C1.9,5.3,1.8,5.4,1.8,5.5C1.7,5.5,1.6,5.6,1.5,5.7v1.8h5V1.6z M2.5,1H3v1.5H2.5V1z M3.5,1H4v1.5H3.5V1z M4.5,1H5v1.5H4.5V1z"/>
</g>
</svg>
