<?xml version="1.0" encoding="utf-8"?>
<!-- Generator: Adobe Illustrator 25.2.0, SVG Export Plug-In . SVG Version: 6.00 Build 0)  -->
<svg version="1.1" id="Layer_1" xmlns="http://www.w3.org/2000/svg" xmlns:xlink="http://www.w3.org/1999/xlink" x="0px" y="0px"
	 viewBox="0 0 16 16" style="enable-background:new 0 0 16 16;" xml:space="preserve">
<style type="text/css">
	.st0{fill:#FFFFFF;}
</style>
<g>
	<path class="st0" d="M8,16c-0.6-0.4-1.2-0.8-1.8-1.2c-0.6-0.4-1.2-0.9-1.7-1.3s-1.1-1-1.5-1.5c-0.5-0.5-0.9-1.1-1.2-1.7
		S1,8.9,0.8,8.2S0.5,6.8,0.5,6V2c0.4,0,0.8,0,1.3,0s0.8-0.1,1.2-0.2c0.4-0.1,0.8-0.2,1.1-0.3c0.4-0.2,0.7-0.3,1.1-0.6
		c0.4-0.3,0.9-0.5,1.3-0.6S7.4,0,8,0c0.3,0,0.5,0,0.8,0.1s0.5,0.1,0.7,0.2s0.4,0.2,0.7,0.3c0.2,0.1,0.4,0.2,0.7,0.4
		c0.4,0.2,0.7,0.4,1.1,0.6c0.4,0.2,0.8,0.3,1.1,0.3C13.4,1.9,13.8,2,14.2,2s0.8,0,1.3,0v4c0,0.8-0.1,1.5-0.3,2.2s-0.5,1.4-0.8,2
		c-0.3,0.6-0.8,1.2-1.2,1.7c-0.5,0.5-1,1-1.5,1.5s-1.1,0.9-1.7,1.3C9.2,15.2,8.6,15.6,8,16z M1.5,3v3c0,0.7,0.1,1.3,0.3,1.9
		s0.4,1.2,0.7,1.7s0.7,1.1,1.1,1.6s0.9,1,1.3,1.4s1,0.8,1.5,1.2s1.1,0.7,1.6,1c0.5-0.3,1.1-0.6,1.6-1c0.5-0.4,1-0.8,1.5-1.2
		s0.9-0.9,1.3-1.4s0.8-1,1.1-1.6s0.5-1.1,0.7-1.7c0.2-0.6,0.3-1.2,0.3-1.9V3c-0.8,0-1.5-0.2-2.2-0.4c-0.7-0.2-1.4-0.5-2-0.9
		C9.8,1.5,9.5,1.3,9.1,1.2C8.8,1.1,8.4,1,8,1S7.2,1.1,6.8,1.2C6.5,1.3,6.1,1.5,5.7,1.7c-0.7,0.4-1.3,0.7-2,0.9C3,2.9,2.3,3,1.5,3z
		 M8.5,3h-1v7h1V3z M8.5,12h-1v-1h1V12z"/>
</g>
</svg>
