<?xml version="1.0" encoding="utf-8"?>
<!-- Generator: Adobe Illustrator 25.2.0, SVG Export Plug-In . SVG Version: 6.00 Build 0)  -->
<svg version="1.1" id="Layer_1" xmlns="http://www.w3.org/2000/svg" xmlns:xlink="http://www.w3.org/1999/xlink" x="0px" y="0px"
	 viewBox="0 0 24 24" style="enable-background:new 0 0 24 24;" xml:space="preserve">
<style type="text/css">
	.st0{fill:#FFFFFF;}
</style>
<g>
	<path class="st0" d="M9.8,0.9h1.3v22.2H9.8l-5.6-5.5H0V6.5h4.2L9.8,0.9z M9.2,4.1L5,8.3H1.8v7.4H5l4.2,4.2V4.1z M16.3,6.8
		c0.7,0.7,1.2,1.5,1.6,2.4s0.6,1.8,0.6,2.8s-0.2,1.9-0.6,2.8s-0.9,1.7-1.6,2.4L15,15.9c0.5-0.5,0.9-1.1,1.2-1.8
		c0.3-0.7,0.4-1.4,0.4-2.1s-0.1-1.4-0.4-2.1c-0.3-0.7-0.7-1.3-1.2-1.8L16.3,6.8z M20.2,2.9c1.2,1.2,2.1,2.6,2.8,4.2s1,3.2,1,4.9
		s-0.3,3.4-1,4.9s-1.6,3-2.8,4.2l-1.3-1.3c1-1,1.9-2.2,2.4-3.6s0.8-2.8,0.8-4.2s-0.3-2.9-0.8-4.2S20,5.2,18.9,4.2L20.2,2.9z"/>
</g>
</svg>
