<?xml version="1.0" encoding="utf-8"?>
<!-- Generator: Adobe Illustrator 25.2.0, SVG Export Plug-In . SVG Version: 6.00 Build 0)  -->
<svg version="1.1" id="Layer_1" xmlns="http://www.w3.org/2000/svg" xmlns:xlink="http://www.w3.org/1999/xlink" x="0px" y="0px"
	 viewBox="0 0 16 16" style="enable-background:new 0 0 16 16;" xml:space="preserve">
<style type="text/css">
	.st0{fill:#FFFFFF;}
</style>
<g>
	<path class="st0" d="M1,9.4C1,9.4,1,9.5,1,9.4c0,0.1,0,0.1,0.1,0.1h7v1h-7c-0.2,0-0.3,0-0.4-0.1c-0.1-0.1-0.2-0.1-0.3-0.2
		C0.2,10.1,0.1,10,0.1,9.9C0,9.7,0,9.6,0,9.4V2.6c0-0.2,0-0.3,0.1-0.4c0.1-0.1,0.1-0.3,0.2-0.4s0.2-0.2,0.3-0.2
		c0.1-0.1,0.3-0.1,0.4-0.1H14c0.2,0,0.3,0,0.4,0.1c0.1,0.1,0.2,0.1,0.3,0.2c0.1,0.1,0.2,0.2,0.2,0.4c0.1,0.1,0.1,0.3,0.1,0.4V7
		l-1-0.2V2.6c0,0,0,0,0-0.1c0,0,0-0.1-0.1-0.1H1.1c0,0,0,0-0.1,0.1c0,0,0,0.1,0,0.1V9.4z M3,3.5v1H2v-1H3z M4,6.5H2v-1h2V6.5z
		 M2,7.5h2v1H2V7.5z M5,4.5H4v-1h1V4.5z M6,6.5H5v-1h1V6.5z M9.6,7.5c-0.4,0.3-0.7,0.6-0.9,1H5v-1H9.6z M7,4.5H6v-1h1V4.5z M8,6.5H7
		v-1h1V6.5z M9,4.5H8v-1h1V4.5z M10,6.5H9v-1h1V6.5z M15,10.6c0,0.2,0,0.3,0,0.5s0,0.3,0,0.5l1,0.4l-0.4,0.9l-1-0.4
		c-0.2,0.3-0.4,0.5-0.7,0.7l0.4,1l-0.9,0.4l-0.4-1c-0.2,0-0.3,0-0.5,0s-0.3,0-0.5,0l-0.4,1l-0.9-0.4l0.4-1c-0.3-0.2-0.5-0.4-0.7-0.7
		l-1,0.4l-0.4-0.9l1-0.4c0-0.2,0-0.3,0-0.5s0-0.3,0-0.5l-1-0.4l0.4-0.9l1,0.4c0.2-0.3,0.4-0.5,0.7-0.7l-0.4-1l0.9-0.4l0.4,1
		c0.2,0,0.3,0,0.5,0s0.3,0,0.5,0l0.4-1L14.4,8L14,9c0.3,0.2,0.5,0.4,0.7,0.7l1-0.4l0.4,0.9L15,10.6z M11.1,4.5h-1v-1h1V4.5z
		 M13.1,6.5h-2v-1h2V6.5z M12.6,12.6c0.2,0,0.4,0,0.6-0.1c0.2-0.1,0.3-0.2,0.5-0.3c0.1-0.1,0.2-0.3,0.3-0.5s0.1-0.4,0.1-0.6
		c0-0.2,0-0.4-0.1-0.6c-0.1-0.2-0.2-0.3-0.3-0.5c-0.1-0.1-0.3-0.2-0.5-0.3c-0.2-0.1-0.4-0.1-0.6-0.1s-0.4,0-0.6,0.1
		c-0.2,0.1-0.3,0.2-0.5,0.3c-0.1,0.1-0.2,0.3-0.3,0.5c-0.1,0.2-0.1,0.4-0.1,0.6c0,0.2,0,0.4,0.1,0.6s0.2,0.3,0.3,0.5
		c0.1,0.1,0.3,0.2,0.5,0.3C12.2,12.5,12.4,12.6,12.6,12.6z M13.1,4.5h-1v-1h1V4.5z"/>
</g>
</svg>
