<?xml version="1.0" encoding="utf-8"?>
<!-- Generator: Adobe Illustrator 25.2.0, SVG Export Plug-In . SVG Version: 6.00 Build 0)  -->
<svg version="1.1" id="Layer_1" xmlns:serif="http://www.serif.com/"
	 xmlns="http://www.w3.org/2000/svg" xmlns:xlink="http://www.w3.org/1999/xlink" x="0px" y="0px" viewBox="0 0 16 16"
	 style="enable-background:new 0 0 16 16;" xml:space="preserve">
<style type="text/css">
	.st0{fill:#FFFFFF;}
</style>
<g>
	<path class="st0" d="M16,4v8h-1v2H9v-1.5c0-0.1,0-0.3-0.1-0.4C8.8,12,8.6,12,8.5,12c-0.1,0-0.3,0-0.4,0.1C8,12.2,8,12.4,8,12.5V14
		H4v-2H2v3H1V2H0V1h2v3H16z M15,5H2v1h1v1H2v2h1v1H2v1h7v-1h1v1h1v-1h1v1h1v-1h1v1h0.5H15V5z M8.1,10h-4V6h4V10z M7,13
		c0-0.2,0-0.3,0-0.5s0-0.3,0.1-0.5H5v1H7z M7.1,7h-2v2h2V7z M10,7H9V6h1V7z M12,9H9V8h3V9z M14,13v-1H9.9c0.1,0.2,0.1,0.3,0.1,0.5
		s0,0.3,0,0.5H14z M12,7h-1V6h1V7z M14,7h-1V6h1V7z M14,9h-1V8h1V9z"/>
</g>
</svg>
