<?xml version="1.0" encoding="utf-8"?>
<!-- Generator: Adobe Illustrator 25.2.0, SVG Export Plug-In . SVG Version: 6.00 Build 0)  -->
<svg version="1.1" id="Layer_1" focusable="false" xmlns="http://www.w3.org/2000/svg" xmlns:xlink="http://www.w3.org/1999/xlink"
	 x="0px" y="0px" viewBox="0 0 640 512" style="enable-background:new 0 0 640 512;" xml:space="preserve">
<style type="text/css">
	.st0{fill:#FFFFFF;}
</style>
<g>
	<path class="st0" d="M587.2,108.8c17.1,17.1,30.2,36.5,39.2,58.3c9.1,21.8,13.6,44.7,13.6,68.9c0,7.3-0.2,16-0.6,26.3
		c-0.4,10.2-1.3,21.2-2.7,33.1c-1.4,11.9-3.3,24.1-5.9,36.7c-2.6,12.6-6,25-10.2,37c-6.3,17.9-13.5,32.6-21.9,43.9
		c-8.3,11.4-17,20.2-25.9,26.6c-9,6.4-18,10.7-27.2,13c-9.2,2.3-17.7,3.4-25.6,3.4c-6.9,0-13.2-1.2-18.9-3.6
		c-5.7-2.4-11.1-5.5-16.2-9.2c-5.1-3.8-9.9-8.1-14.4-13c-4.5-4.9-8.9-9.8-13.3-14.8c-4.4-5-8.7-9.8-13-14.4
		c-4.3-4.6-8.7-8.7-13.3-12.3c-4.6-3.6-9.4-6.6-14.5-8.9c-5.1-2.3-10.7-3.5-16.7-3.7H240.3c-6,0.2-11.6,1.5-16.7,3.7
		c-5.1,2.3-10,5.3-14.5,8.9c-4.6,3.6-9,7.8-13.3,12.3c-4.3,4.6-8.6,9.4-13,14.4c-4.4,5-8.8,10-13.3,14.8c-4.5,4.9-9.3,9.2-14.4,13
		c-5.1,3.8-10.5,6.8-16.3,9.2c-5.7,2.4-12,3.6-18.9,3.6c-7.9,0-16.5-1.1-25.6-3.4c-9.2-2.3-18.2-6.6-27.2-13
		c-9-6.4-17.6-15.2-25.9-26.6c-8.3-11.4-15.6-26-21.9-43.9c-4.2-12.1-7.6-24.4-10.2-37c-2.6-12.6-4.6-24.8-5.9-36.7
		c-1.4-11.9-2.2-22.9-2.7-33.1C0.2,252,0,243.3,0,236c0-24.2,4.5-47.1,13.6-68.9c9.1-21.8,22.1-41.2,39.2-58.3
		c16.9-17.1,36.2-30.2,58.1-39.2C132.8,60.5,155.8,56,180,56h280c24.2,0,47.1,4.5,68.9,13.6C550.7,78.7,570.1,91.7,587.2,108.8z
		 M582.8,356c4-11,7.1-22.5,9.4-34.4c2.3-11.9,4-23.3,5.2-34.2c1.1-10.9,1.9-20.9,2.2-29.8c0.3-9,0.5-16.1,0.5-21.6
		c0-19.4-3.7-37.5-11.1-54.5c-7.4-17-17.4-31.8-30-44.4c-12.6-12.6-27.4-22.6-44.4-30C497.5,99.7,479.4,96,460,96H180
		c-19.4,0-37.6,3.7-54.5,11.1c-17,7.4-31.8,17.4-44.4,30c-12.6,12.6-22.6,27.4-30,44.4C43.7,198.5,40,216.6,40,236
		c0,5.4,0.2,12.6,0.5,21.6c0.3,9,1,18.9,2.2,29.8c1.1,10.9,2.9,22.3,5.2,34.2c2.3,11.9,5.4,23.3,9.4,34.4
		c5.2,15,10.9,26.6,17.2,34.7c6.3,8.1,12.3,14.1,18.3,17.8s11.4,5.9,16.2,6.6c4.9,0.6,8.6,0.9,11.1,0.9c4.6,0,9.6-2.8,15.2-8.3
		c5.5-5.5,11.3-11.7,17.3-18.6c5-5.8,10.4-11.8,16.1-18c5.7-6.1,12.1-11.8,19.1-16.9c7-5.1,14.7-9.3,23.3-12.7
		c8.5-3.3,18-5.2,28.4-5.6h0.3h160.9c10.4,0.4,19.9,2.3,28.4,5.6c8.5,3.3,16.3,7.6,23.3,12.7c7,5.1,13.3,10.7,19.1,16.9
		c5.7,6.1,11.1,12.1,16.1,18c6,6.9,11.8,13.1,17.3,18.6c5.5,5.5,10.6,8.3,15.2,8.3c2.5,0,6.2-0.3,11.1-0.9
		c4.9-0.6,10.3-2.8,16.2-6.6c5.9-3.8,12-9.7,18.3-17.8C571.9,382.6,577.6,371,582.8,356z M160,216h40v40h-40v40h-40v-40H80v-40h40
		v-40h40V216z M440,176c5.6,0,10.8,1,15.6,3.1c4.8,2.1,9,5,12.7,8.6c3.6,3.6,6.5,7.9,8.6,12.7c2.1,4.8,3.1,10,3.1,15.6
		c0,5.6-1,10.8-3.1,15.6c-2.1,4.8-5,9-8.6,12.7c-3.6,3.6-7.9,6.5-12.7,8.6c-4.8,2.1-10,3.1-15.6,3.1c-5.6,0-10.8-1-15.6-3.1
		c-4.8-2.1-9-4.9-12.7-8.6c-3.6-3.6-6.5-7.9-8.6-12.7c-2.1-4.8-3.1-10-3.1-15.6c0-5.6,1-10.8,3.1-15.6c2.1-4.8,4.9-9,8.6-12.7
		c3.6-3.6,7.9-6.5,12.7-8.6C429.2,177,434.4,176,440,176z M520,256c5.6,0,10.8,1,15.6,3.1c4.8,2.1,9,5,12.7,8.6
		c3.6,3.6,6.5,7.9,8.6,12.7c2.1,4.8,3.1,10,3.1,15.6c0,5.6-1,10.8-3.1,15.6c-2.1,4.8-5,9-8.6,12.7c-3.6,3.6-7.9,6.5-12.7,8.6
		c-4.8,2.1-10,3.1-15.6,3.1s-10.8-1-15.6-3.1c-4.8-2.1-9-4.9-12.7-8.6c-3.6-3.6-6.5-7.9-8.6-12.7c-2.1-4.8-3.1-10-3.1-15.6
		c0-5.6,1-10.8,3.1-15.6c2.1-4.8,4.9-9,8.6-12.7c3.6-3.6,7.9-6.5,12.7-8.6C509.2,257,514.4,256,520,256z"/>
</g>
</svg>
