<?xml version="1.0" encoding="utf-8"?>
<!-- Generator: Adobe Illustrator 25.2.0, SVG Export Plug-In . SVG Version: 6.00 Build 0)  -->
<svg version="1.1" id="Layer_1" xmlns="http://www.w3.org/2000/svg" xmlns:xlink="http://www.w3.org/1999/xlink" x="0px" y="0px"
	 viewBox="0 0 14 16" style="enable-background:new 0 0 14 16;" xml:space="preserve">
<style type="text/css">
	.st0{fill:#FFFFFF;}
</style>
<g>
	<path class="st0" d="M7,1c0.6,0,1.3,0.1,1.9,0.3C9.4,1.4,10,1.7,10.5,2c0.5,0.3,1,0.7,1.4,1.1C12.4,3.5,12.7,4,13,4.5
		c0.3,0.5,0.5,1.1,0.7,1.7C13.9,6.7,14,7.4,14,8s-0.1,1.3-0.3,1.9c-0.2,0.6-0.4,1.1-0.7,1.7c-0.3,0.5-0.7,1-1.1,1.4
		c-0.4,0.4-0.9,0.8-1.4,1.1c-0.5,0.3-1.1,0.5-1.7,0.7C8.3,14.9,7.6,15,7,15s-1.3-0.1-1.9-0.3S4,14.3,3.5,14s-1-0.7-1.4-1.1
		S1.3,12,1,11.5s-0.5-1.1-0.7-1.7S0,8.6,0,8s0.1-1.3,0.3-1.9S0.7,5,1,4.5c0.3-0.5,0.7-1,1.1-1.4S3,2.3,3.5,2s1.1-0.5,1.7-0.7
		S6.4,1,7,1z M7,14.1c0.5,0,1-0.1,1.5-0.2s1-0.3,1.4-0.6c0.4-0.2,0.9-0.5,1.2-0.9c0.4-0.3,0.7-0.7,1-1.2C12.1,11.2,12,11,12,10.9
		c-0.1-0.1-0.1-0.3-0.1-0.4c0-0.2,0-0.3,0-0.4c0-0.1,0-0.2,0-0.3c0-0.1,0-0.1,0-0.2s0-0.1,0-0.2c0-0.1-0.1-0.2-0.1-0.3
		c-0.1-0.1-0.1-0.3-0.2-0.4c0,0,0-0.1,0-0.1c0-0.1,0-0.1,0-0.2c0-0.1,0-0.1,0-0.2c0-0.1,0-0.1,0-0.1c-0.1,0-0.2,0-0.4-0.1
		S11,7.9,10.9,7.8l0,0c-0.1,0-0.1,0-0.2,0.1c-0.1,0-0.1,0-0.2,0.1c-0.1,0-0.1,0-0.2,0.1c-0.1,0-0.1,0-0.2,0l-0.1,0l0,0
		C10.1,8,10,8,9.9,8c-0.1,0-0.1,0-0.2,0c0,0-0.1,0-0.2,0C9.4,8,9.4,7.9,9.3,7.9C9.2,7.9,9.1,7.8,9,7.7C9,7.7,8.9,7.6,8.9,7.6l0,0
		c0,0-0.1-0.1-0.1-0.1c0,0-0.1,0-0.1-0.1s-0.1,0-0.1-0.1c0,0,0-0.1,0-0.1l0.1-0.1l-0.2,0L8.5,7c0,0,0,0,0.1,0c0,0,0.1,0,0.1,0
		L8.4,6.8l0.2-0.4C8.5,6.2,8.5,6,8.5,5.9s0.1-0.2,0.2-0.3C8.8,5.5,8.9,5.4,9,5.3C9.1,5.2,9.2,5.1,9.3,5l0-0.1l0.4-0.5l0.1,0
		c0.1,0,0.3,0,0.4,0c0.2,0,0.3,0,0.5,0c0.2,0,0.3,0,0.5-0.1c0.2,0,0.3-0.1,0.4-0.1c-0.1-0.2-0.3-0.3-0.5-0.5
		c-0.2-0.2-0.3-0.3-0.5-0.4c-0.1,0-0.1,0-0.2,0.1s-0.1,0.1-0.2,0.1s-0.1,0.1-0.2,0.2c0,0.1-0.1,0.1-0.1,0.2l0,0.1
		C10,4,10,4.1,9.9,4.1c-0.1,0-0.2,0.1-0.3,0.1c-0.1,0-0.2,0-0.3,0c-0.1,0-0.2,0-0.3,0.1L8.8,4l0.1-0.4L8.8,3.4L10,3
		C9.9,2.9,9.8,2.8,9.7,2.8C9.6,2.7,9.5,2.7,9.3,2.7V2.6l0.4-0.1C9.3,2.3,8.9,2.2,8.4,2.1C7.9,1.9,7.5,1.9,7,1.9
		c-0.4,0-0.8,0-1.2,0.1C5.4,2.1,5.1,2.2,4.7,2.3C4.3,2.5,4,2.7,3.7,2.9S3,3.3,2.7,3.6c0.1,0,0.2,0,0.3,0.1c0.1,0.1,0.1,0.1,0.2,0.2
		s0.1,0.1,0.2,0.2c0.1,0.1,0.1,0.1,0.2,0.1l0.1-0.1l0-0.1l0.2-0.3L3.7,3.1c0,0,0.1,0,0.1-0.1c0,0,0.1,0,0.1,0c0.1,0,0.2,0,0.3,0
		c0.1,0,0.1,0,0.2,0.1c0.1,0,0.1,0.1,0.1,0.2c0,0.1,0.1,0.2,0.2,0.3l0.2-0.2c0,0,0.1,0,0.2,0.1s0.2,0.1,0.3,0.1
		c0.1,0.1,0.2,0.1,0.3,0.2C5.9,3.8,6,3.9,6,4c0,0.1,0,0.1-0.1,0.2c-0.1,0-0.1,0.1-0.2,0.1c-0.1,0-0.2,0-0.3,0.1
		c-0.1,0-0.2,0-0.3,0.1C5.1,4.4,5,4.4,5,4.4c-0.1,0-0.1,0.1-0.1,0.1l0.4,0.1C5.2,4.7,5.1,4.8,5,4.9C4.9,4.9,4.8,5,4.7,5l0,0.1
		L4.1,5.4v0.2l0,0l0-0.2l0,0c0,0-0.1,0-0.1,0s0,0,0,0c0,0,0,0,0,0.1s0,0,0,0l-0.1,0l0,0c0,0,0,0,0,0.1c0,0,0,0.1,0.1,0.1
		s0,0.1,0.1,0.1c0,0,0,0,0,0c0,0,0,0-0.1,0c0,0,0,0-0.1,0s0,0,0,0c0.1,0,0.1,0,0,0c0,0-0.1,0-0.2,0.1C3.7,6,3.6,6,3.6,6.1
		C3.5,6.2,3.5,6.2,3.5,6.4c0,0.1,0,0.2,0,0.2s0,0.1,0,0.2C3.4,6.7,3.3,6.5,3.2,6.4S2.9,6.3,2.7,6.3l-0.3,0l0.1,0.1
		c-0.1,0-0.2,0-0.2,0c-0.1,0-0.2,0-0.2,0c-0.1,0-0.2,0-0.2,0.1c-0.1,0-0.1,0.1-0.2,0.1l0,0.3c0,0.1,0,0.3,0.1,0.4S1.9,7.4,2,7.4
		c0.1,0,0.3,0,0.4-0.1c0.1,0,0.3-0.1,0.4-0.1c0,0.1-0.1,0.2-0.1,0.3C2.6,7.6,2.6,7.7,2.6,7.8l0.1,0c0.1-0.1,0.2-0.1,0.3,0
		c0.1,0,0.2,0.1,0.3,0.2s0.2,0.2,0.3,0.3c0.1,0.1,0.2,0.2,0.3,0.2L3.6,8.6L3,8.3c0,0,0,0,0,0.1c0,0,0,0,0,0L2.8,8
		C2.6,8,2.5,8,2.3,7.9C2.1,7.9,2,7.8,1.8,7.8C1.6,7.7,1.5,7.6,1.3,7.5S1.1,7.4,0.9,7.3l0,0.7c0,0.6,0.1,1.1,0.2,1.6s0.4,1,0.6,1.5
		s0.6,0.9,1,1.3c0.4,0.4,0.8,0.7,1.3,1c0-0.1,0-0.2,0-0.3s0-0.2,0.1-0.3s0.1-0.2,0.1-0.3c0-0.1,0-0.2,0-0.3c0-0.1,0-0.3-0.1-0.5
		c0-0.2-0.1-0.3-0.2-0.5s-0.1-0.3-0.2-0.5c-0.1-0.2-0.1-0.3-0.2-0.5C3.6,10.2,3.5,10,3.5,9.9c0-0.1,0-0.2,0-0.3l-0.1,0
		c0-0.1,0.1-0.1,0.1-0.2c0-0.1,0.1-0.1,0.1-0.2S3.8,9.1,3.8,9s0-0.1,0-0.2c0,0,0-0.1,0-0.1c0-0.1,0-0.1,0-0.1l0.1,0
		C4,8.4,4.1,8.3,4.3,8.2c0.1-0.1,0.3-0.1,0.5-0.1c0,0,0.1,0,0.1,0c0.1,0,0.1,0,0.2,0.1s0.2,0.1,0.2,0.1s0.1,0,0.2,0.1
		c0,0,0,0.1,0.1,0.1c0,0,0.1,0,0.1,0l0,0.1c0,0,0,0,0.1,0.1s0.1,0.1,0.2,0.1C6,8.7,6,8.7,6.1,8.7s0.1,0.1,0.1,0.1
		c0.1,0,0.2,0,0.3,0.1C6.6,9,6.8,9,6.9,9.1c0.2,0.1,0.3,0.2,0.5,0.3c0.2,0.1,0.3,0.2,0.5,0.3C8,9.9,8.2,10,8.2,10.1s0.1,0.2,0.1,0.3
		l-0.2,0.2c0,0.2,0,0.4-0.1,0.5C8,11.3,8,11.4,7.9,11.5c-0.1,0.1-0.2,0.1-0.4,0.2c-0.1,0.1-0.3,0.1-0.4,0.2c0,0.1,0,0.2-0.1,0.3
		c0,0.1-0.1,0.2-0.2,0.3c-0.1,0.1-0.2,0.2-0.2,0.2c-0.1,0.1-0.2,0.1-0.3,0.1L6,12.6c0,0,0,0,0,0.1c0,0,0,0,0,0C6,12.8,6,12.9,6,13
		c0,0.1-0.1,0.2-0.1,0.3c-0.1,0.1-0.1,0.2-0.2,0.3c-0.1,0.1-0.1,0.2-0.2,0.3C5.8,14,6,14,6.3,14.1C6.5,14.1,6.7,14.1,7,14.1z M3.4,7
		c0.1,0,0.1,0,0.2,0c0.1,0,0.1,0,0.2,0.1C3.9,7.2,4,7.2,4,7.2c0.1,0,0.1,0.1,0.2,0.1c0,0-0.1,0-0.1,0S4,7.3,4,7.3
		c-0.1,0-0.1,0-0.2,0S3.7,7.2,3.6,7.2C3.6,7.2,3.5,7.1,3.4,7C3.4,7.1,3.4,7.1,3.4,7c-0.1,0-0.2,0.1-0.2,0.1c0,0-0.1,0-0.1,0.1
		c0,0,0,0,0,0c0,0,0.1-0.1,0.2-0.1S3.4,7,3.4,7z M4.3,7.3c0.2,0,0.4,0,0.5,0.1c-0.1,0-0.1,0-0.2,0.1c-0.1,0-0.1,0-0.2,0
		c-0.1,0-0.2,0-0.2,0C4.2,7.5,4.2,7.4,4.3,7.3C4.3,7.4,4.3,7.4,4.3,7.3z M11.7,4.1C11.7,4.2,11.7,4.2,11.7,4.1L11.7,4.1
		C11.8,4.2,11.8,4.2,11.7,4.1L11.7,4.1z M12.2,4.8c-0.1-0.1-0.1-0.2-0.2-0.3c-0.1-0.1-0.1-0.2-0.2-0.3c0,0,0,0.1,0,0.1
		c0,0,0,0.1,0,0.1c0,0,0,0.1,0.1,0.1s0.1,0.1,0.1,0.1c0,0,0.1,0.1,0.1,0.1C12.1,4.8,12.2,4.8,12.2,4.8z"/>
</g>
</svg>
