<?xml version="1.0" encoding="utf-8"?>
<!-- Generator: Adobe Illustrator 25.2.0, SVG Export Plug-In . SVG Version: 6.00 Build 0)  -->
<svg version="1.1" id="Layer_1" xmlns="http://www.w3.org/2000/svg" xmlns:xlink="http://www.w3.org/1999/xlink" x="0px" y="0px"
	 viewBox="0 0 8 8" style="enable-background:new 0 0 8 8;" xml:space="preserve">
<style type="text/css">
	.st0{fill:#FFFFFF;}
</style>
<g>
	<path class="st0" d="M8,1v6H0V1H8z M0.5,1.5v2.6l1.8-1.7l2.5,2.5l1-1l1.8,1.7V1.5H0.5z M0.5,6.5h5.1L2.2,3.1L0.5,4.9V6.5z M7.5,6.5
		V6.4L5.8,4.6L5.1,5.3l1.3,1.2H7.5z M6.2,3C6.2,3,6.1,3,6.1,2.9S6,2.8,6,2.7s0-0.1,0.1-0.2s0.1-0.1,0.2-0.1s0.1,0,0.2,0.1
		s0.1,0.1,0.1,0.2s0,0.1-0.1,0.2S6.3,3,6.2,3z"/>
</g>
</svg>
