<?xml version="1.0" encoding="utf-8"?>
<!-- Generator: Adobe Illustrator 25.2.0, SVG Export Plug-In . SVG Version: 6.00 Build 0)  -->
<svg version="1.1" id="Layer_1" xmlns="http://www.w3.org/2000/svg" xmlns:xlink="http://www.w3.org/1999/xlink" x="0px" y="0px"
	 viewBox="0 0 8 8" style="enable-background:new 0 0 8 8;" xml:space="preserve">
<style type="text/css">
	.st0{fill:#FFFFFF;}
</style>
<g>
	<path class="st0" d="M6.7,4v1.4c0,0.2,0,0.4-0.1,0.6C6.5,6.2,6.4,6.4,6.3,6.5C6.1,6.7,6,6.8,5.8,6.9C5.6,7,5.4,7,5.2,7H4.3v0.5h1V8
		H2.8V7.5h1V7H2.8C2.6,7,2.4,7,2.2,6.9C2,6.8,1.9,6.7,1.7,6.5C1.6,6.4,1.5,6.2,1.4,6C1.3,5.8,1.3,5.6,1.3,5.4V4h0.5v1.4
		c0,0.1,0,0.3,0.1,0.4C1.9,6,2,6.1,2.1,6.2c0.1,0.1,0.2,0.2,0.3,0.2c0.1,0.1,0.3,0.1,0.4,0.1h2.3c0.1,0,0.3,0,0.4-0.1
		c0.1-0.1,0.2-0.1,0.3-0.2C6,6.1,6.1,6,6.2,5.8c0.1-0.1,0.1-0.3,0.1-0.4V4H6.7z M3,6C2.9,6,2.8,6,2.7,5.9c-0.1,0-0.2-0.1-0.2-0.2
		C2.4,5.7,2.3,5.6,2.3,5.5c0-0.1-0.1-0.2-0.1-0.3V0.8c0-0.1,0-0.2,0.1-0.3c0-0.1,0.1-0.2,0.2-0.2c0.1-0.1,0.1-0.1,0.2-0.2
		C2.8,0,2.9,0,3,0h2c0.1,0,0.2,0,0.3,0.1c0.1,0,0.2,0.1,0.2,0.2c0.1,0.1,0.1,0.1,0.2,0.2c0,0.1,0.1,0.2,0.1,0.3v4.5
		c0,0.1,0,0.2-0.1,0.3c0,0.1-0.1,0.2-0.2,0.2C5.5,5.8,5.4,5.9,5.3,5.9C5.2,6,5.1,6,5,6H3z M2.8,5.3c0,0.1,0,0.1,0.1,0.2
		c0,0.1,0.1,0.1,0.2,0.1h2c0.1,0,0.1,0,0.2-0.1c0,0,0.1-0.1,0.1-0.2V0.8c0-0.1,0-0.1-0.1-0.2c0,0-0.1-0.1-0.2-0.1H3
		c-0.1,0-0.1,0-0.2,0.1c0,0-0.1,0.1-0.1,0.2V5.3z"/>
</g>
</svg>
