<?xml version="1.0" encoding="utf-8"?>
<!-- Generator: Adobe Illustrator 25.2.0, SVG Export Plug-In . SVG Version: 6.00 Build 0)  -->
<svg version="1.1" id="Layer_1" xmlns="http://www.w3.org/2000/svg" xmlns:xlink="http://www.w3.org/1999/xlink" x="0px" y="0px"
	 viewBox="0 0 8 8" style="enable-background:new 0 0 8 8;" xml:space="preserve">
<style type="text/css">
	.st0{fill:#FFFFFF;}
</style>
<g>
	<path class="st0" d="M5,5.5H0v-3h5V3H0.5v2H5V5.5z M1,4.5v-1h3v1H1z M6,6.1c0.3,0.2,0.6,0.4,1,0.4h0V7h0C6.5,7,6.1,6.9,5.8,6.6
		C5.6,6.7,5.4,6.8,5.2,6.9C5,7,4.7,7,4.5,7h0V6.5h0c0.4,0,0.7-0.1,1-0.4V1.9C5.4,1.7,5.2,1.7,5,1.6C4.9,1.5,4.7,1.5,4.5,1.5h0V1h0
		C4.7,1,5,1,5.2,1.1c0.2,0.1,0.4,0.2,0.6,0.3C6.1,1.1,6.5,1,7,1h0v0.5h0c-0.4,0-0.7,0.1-1,0.4V6.1z M8,2.5v3H6.5V5h1V3h-1V2.5H8z"/>
</g>
</svg>
