<?xml version="1.0" encoding="utf-8"?>
<!-- Generator: Adobe Illustrator 25.2.1, SVG Export Plug-In . SVG Version: 6.00 Build 0)  -->
<svg version="1.1" id="Layer_1" xmlns="http://www.w3.org/2000/svg" xmlns:xlink="http://www.w3.org/1999/xlink" x="0px" y="0px"
	 viewBox="0 0 16 16" style="enable-background:new 0 0 16 16;" xml:space="preserve">
<style type="text/css">
	.st0{display:none;fill:#FFFFFF;}
	.st1{fill:#7F7F7F;}
</style>
<path class="st0" d="M13.2,7.1V15H2.8V7.1h1.7V4.6c0-0.5,0.1-0.9,0.3-1.4s0.4-0.8,0.7-1.1c0.3-0.3,0.7-0.6,1.1-0.8S7.5,1,8,1
	s1,0.1,1.4,0.3s0.8,0.4,1.1,0.8c0.3,0.3,0.6,0.7,0.7,1.1s0.3,0.9,0.3,1.4v2.5H13.2z M12.4,8H3.7v6.1h8.7V8z M5.4,7.1h5.2V4.6
	c0-0.4-0.1-0.7-0.2-1C10.3,3.3,10.1,3,9.9,2.7C9.6,2.5,9.4,2.3,9,2.1C8.7,2,8.4,1.9,8,1.9C7.6,1.9,7.3,2,7,2.1
	C6.6,2.3,6.4,2.5,6.1,2.7S5.7,3.2,5.6,3.6c-0.1,0.3-0.2,0.7-0.2,1V7.1z"/>
<path class="st1" d="M13.2,7.1V15H2.8V7.1h7.8V4.5c0-0.4-0.1-0.7-0.2-1s-0.3-0.6-0.6-0.8S9.4,2.2,9,2.1C8.7,2,8.4,1.9,8,1.9
	C7.6,1.9,7.3,2,7,2.1C6.6,2.2,6.4,2.4,6.1,2.7S5.7,3.2,5.6,3.5s-0.2,0.7-0.2,1H4.5c0-0.5,0.1-1,0.3-1.4S5.2,2.4,5.5,2
	c0.3-0.3,0.7-0.6,1.1-0.7C7,1.1,7.5,1,8,1s1,0.1,1.4,0.3s0.8,0.4,1.1,0.7s0.6,0.7,0.7,1.1s0.3,0.9,0.3,1.4v2.6H13.2z M12.4,8H3.7
	v6.1h8.7V8z"/>
</svg>
