<?xml version="1.0" encoding="utf-8"?>
<!-- Generator: Adobe Illustrator 27.4.0, SVG Export Plug-In . SVG Version: 6.00 Build 0)  -->
<svg version="1.1"
	 id="svg7384" xmlns:osb="http://www.openswatchbook.org/uri/2009/osb" xmlns:cc="http://creativecommons.org/ns#" xmlns:dc="http://purl.org/dc/elements/1.1/" xmlns:svg="http://www.w3.org/2000/svg" xmlns:rdf="http://www.w3.org/1999/02/22-rdf-syntax-ns#"
	 xmlns="http://www.w3.org/2000/svg" xmlns:xlink="http://www.w3.org/1999/xlink" x="0px" y="0px" viewBox="0 0 16 16"
	 style="enable-background:new 0 0 16 16;" xml:space="preserve">
<style type="text/css">
	.st0{fill:#FFFFFF;}
</style>
<g>
	<path class="st0" d="M4,14c-0.3,0-0.5-0.1-0.7-0.2c-0.2-0.1-0.4-0.2-0.6-0.4S2.3,13,2.2,12.8C2.1,12.5,2,12.3,2,12V4
		c0-0.3,0.1-0.5,0.2-0.7C2.3,3,2.5,2.8,2.6,2.6S3,2.3,3.3,2.2C3.5,2.1,3.7,2,4,2h8c0.3,0,0.5,0.1,0.7,0.2c0.2,0.1,0.4,0.2,0.6,0.4
		s0.3,0.4,0.4,0.6C13.9,3.5,14,3.7,14,4v8c0,0.3-0.1,0.5-0.2,0.7c-0.1,0.2-0.2,0.4-0.4,0.6s-0.4,0.3-0.6,0.4
		C12.5,13.9,12.3,14,12,14H4z M12,13c0.1,0,0.3,0,0.4-0.1c0.1-0.1,0.2-0.1,0.3-0.2s0.2-0.2,0.2-0.3c0.1-0.1,0.1-0.3,0.1-0.4V4
		c0-0.1,0-0.3-0.1-0.4s-0.1-0.2-0.2-0.3c-0.1-0.1-0.2-0.2-0.3-0.2C12.2,3.1,12.1,3,12,3H4c-0.1,0-0.3,0-0.4,0.1S3.4,3.2,3.3,3.3
		C3.2,3.4,3.2,3.5,3.1,3.6S3,3.9,3,4V12c0,0.1,0,0.3,0.1,0.4c0.1,0.1,0.1,0.2,0.2,0.3c0.1,0.1,0.2,0.2,0.3,0.2S3.9,13,4,13H12z
		 M5,8.5c0-0.1,0-0.3,0.1-0.3C5.3,8,5.4,8,5.5,8c0.1,0,0.3,0,0.4,0.1L7,9.3l3.6-3.6c0.1-0.1,0.2-0.1,0.4-0.1c0.1,0,0.3,0,0.4,0.1
		c0.1,0.1,0.1,0.2,0.1,0.4s0,0.3-0.1,0.4l-4,4c-0.1,0.1-0.2,0.1-0.3,0.1c-0.1,0-0.1,0-0.2,0s-0.1-0.1-0.2-0.1L5.2,8.8
		C5.1,8.7,5,8.6,5,8.5z"/>
</g>
</svg>
