<?xml version="1.0" encoding="utf-8"?>
<!-- Generator: Adobe Illustrator 25.2.0, SVG Export Plug-In . SVG Version: 6.00 Build 0)  -->
<svg version="1.1" id="Layer_1" xmlns="http://www.w3.org/2000/svg" xmlns:xlink="http://www.w3.org/1999/xlink" x="0px" y="0px"
	 viewBox="0 0 16 16" style="enable-background:new 0 0 16 16;" xml:space="preserve">
<style type="text/css">
	.st0{fill:#FFFFFF;}
</style>
<g>
	<path class="st0" d="M14,7.7c0,0,0,0.1,0,0.1c0,0,0,0.1,0,0.1c0,0,0,0.1,0,0.1s0,0.1,0,0.1l2,1.3l-1.2,3L12.4,12
		c-0.1,0.1-0.3,0.3-0.4,0.4l0.5,2.3l-3,1.2l-1.3-2c0,0-0.1,0-0.1,0S8,14,8,14c0,0-0.1,0-0.1,0c0,0-0.1,0-0.1,0l-1.3,2l-3-1.2L4,12.4
		c-0.1-0.1-0.3-0.3-0.4-0.4l-2.3,0.5L0,9.5l2-1.3c0,0,0-0.1,0-0.1C2,8.1,2,8,2,8c0,0,0-0.1,0-0.1c0,0,0-0.1,0-0.1L0,6.5l1.2-3L3.6,4
		C3.7,3.8,3.8,3.7,4,3.6L3.4,1.2l3-1.2l1.3,2c0,0,0.1,0,0.1,0C7.9,2,8,2,8,2c0,0,0.1,0,0.1,0c0,0,0.1,0,0.1,0l1.3-2l3,1.2L12,3.6
		c0.1,0.1,0.3,0.3,0.4,0.4l2.3-0.5l1.2,3L14,7.7z M13,8.7c0-0.1,0-0.3,0-0.4s0-0.2,0-0.4c0-0.1,0-0.2,0-0.4s0-0.2,0-0.4l1.9-1.2
		l-0.7-1.6L12.1,5c-0.2-0.2-0.3-0.4-0.5-0.6c-0.2-0.2-0.4-0.3-0.6-0.5l0.5-2.1L9.9,1.1L8.7,3c-0.1,0-0.2,0-0.4,0c-0.1,0-0.2,0-0.4,0
		c-0.1,0-0.3,0-0.4,0c-0.1,0-0.2,0-0.4,0L6.1,1.1L4.5,1.8L5,3.9C4.8,4.1,4.6,4.2,4.4,4.4C4.2,4.6,4.1,4.8,3.9,5L1.8,4.5L1.1,6.1
		L3,7.3c0,0.1,0,0.3,0,0.4c0,0.1,0,0.2,0,0.4c0,0.1,0,0.2,0,0.4c0,0.1,0,0.2,0,0.4L1.1,9.9l0.7,1.6L3.9,11c0.2,0.2,0.3,0.4,0.5,0.6
		c0.2,0.2,0.4,0.3,0.6,0.5l-0.5,2.1l1.6,0.7L7.3,13c0.1,0,0.2,0,0.4,0s0.2,0,0.4,0c0.1,0,0.3,0,0.4,0c0.1,0,0.2,0,0.4,0l1.2,1.9
		l1.6-0.7L11,12.1c0.2-0.2,0.4-0.3,0.6-0.5c0.2-0.2,0.3-0.4,0.5-0.6l2.1,0.5l0.7-1.6L13,8.7z M8,5c0.4,0,0.8,0.1,1.2,0.2
		c0.4,0.2,0.7,0.4,0.9,0.6c0.3,0.3,0.5,0.6,0.6,0.9C10.9,7.2,11,7.6,11,8c0,0.4-0.1,0.8-0.2,1.2c-0.2,0.4-0.4,0.7-0.6,0.9
		c-0.3,0.3-0.6,0.5-0.9,0.6C8.8,10.9,8.4,11,8,11c-0.4,0-0.8-0.1-1.2-0.2c-0.4-0.2-0.7-0.4-0.9-0.6C5.6,9.8,5.4,9.5,5.3,9.2
		C5.1,8.8,5,8.4,5,8c0-0.4,0.1-0.8,0.2-1.2c0.2-0.4,0.4-0.7,0.6-0.9c0.3-0.3,0.6-0.5,0.9-0.6C7.2,5.1,7.6,5,8,5z M8,10.1
		c0.3,0,0.6-0.1,0.8-0.2s0.5-0.3,0.7-0.4s0.3-0.4,0.4-0.7s0.2-0.5,0.2-0.8c0-0.3-0.1-0.6-0.2-0.8S9.7,6.7,9.5,6.5
		C9.3,6.3,9.1,6.2,8.8,6.1C8.6,6,8.3,5.9,8,5.9C7.7,5.9,7.4,6,7.2,6.1C6.9,6.2,6.7,6.3,6.5,6.5C6.3,6.7,6.2,6.9,6.1,7.2
		C6,7.4,5.9,7.7,5.9,8c0,0.3,0.1,0.6,0.2,0.8c0.1,0.3,0.3,0.5,0.4,0.7c0.2,0.2,0.4,0.3,0.7,0.4S7.7,10.1,8,10.1z"/>
</g>
</svg>
