<?xml version="1.0" encoding="utf-8"?>
<!-- Generator: Adobe Illustrator 25.2.0, SVG Export Plug-In . SVG Version: 6.00 Build 0)  -->
<svg version="1.1" id="Layer_1" xmlns="http://www.w3.org/2000/svg" xmlns:xlink="http://www.w3.org/1999/xlink" x="0px" y="0px"
	 viewBox="0 0 16 16" style="enable-background:new 0 0 16 16;" xml:space="preserve">
<style type="text/css">
	.st0{fill:#FFFFFF;}
</style>
<g>
	<path class="st0" d="M3.1,0.9C2.8,1.2,2.5,1.5,2.2,1.9C2,2.3,1.8,2.7,1.6,3.1S1.3,4,1.2,4.4C1.1,4.9,1.1,5.3,1.1,5.8
		c0,0.5,0,0.9,0.1,1.4C1.3,7.6,1.4,8,1.6,8.4C1.8,8.8,2,9.2,2.2,9.6c0.3,0.4,0.5,0.7,0.9,1.1l-0.8,0.8C1.6,10.7,1,9.8,0.6,8.8
		S0,6.8,0,5.8s0.2-2.1,0.6-3.1s1-1.8,1.7-2.6L3.1,0.9z M5.4,3.1C5,3.5,4.7,3.9,4.5,4.3S4.3,5.3,4.3,5.8s0.1,1,0.3,1.4
		C4.7,7.6,5,8.1,5.4,8.4L4.6,9.2c-0.5-0.5-0.8-1-1-1.6S3.2,6.4,3.2,5.8s0.1-1.3,0.4-1.8s0.6-1.1,1-1.6L5.4,3.1z M7.5,4.2h1.1v11.7
		H7.5V4.2z M11.4,2.4c0.5,0.5,0.8,1,1,1.6c0.2,0.6,0.4,1.2,0.4,1.8S12.7,7,12.4,7.6c-0.2,0.6-0.6,1.1-1,1.6l-0.8-0.8
		c0.4-0.4,0.6-0.8,0.8-1.2c0.2-0.5,0.3-0.9,0.3-1.4s-0.1-1-0.3-1.4S11,3.5,10.6,3.1L11.4,2.4z M13.7,0.1c0.8,0.8,1.3,1.6,1.7,2.6
		c0.4,1,0.6,2,0.6,3.1s-0.2,2.1-0.6,3.1c-0.4,1-1,1.8-1.7,2.6l-0.8-0.8c0.3-0.3,0.6-0.7,0.9-1.1s0.5-0.8,0.6-1.2
		c0.2-0.4,0.3-0.8,0.4-1.3c0.1-0.4,0.1-0.9,0.1-1.4c0-0.5,0-0.9-0.1-1.4c-0.1-0.4-0.2-0.9-0.4-1.3S14,2.3,13.8,1.9s-0.5-0.7-0.9-1.1
		L13.7,0.1z"/>
</g>
</svg>
