<?xml version="1.0" encoding="utf-8"?>
<!-- Generator: Adobe Illustrator 25.2.0, SVG Export Plug-In . SVG Version: 6.00 Build 0)  -->
<svg version="1.1" id="Layer_1" xmlns="http://www.w3.org/2000/svg" xmlns:xlink="http://www.w3.org/1999/xlink" x="0px" y="0px"
	 viewBox="0 0 8 8" style="enable-background:new 0 0 8 8;" xml:space="preserve">
<style type="text/css">
	.st0{fill:#FFFFFF;}
</style>
<g>
	<path class="st0" d="M4,0.1c0.4,0,0.7,0,1,0.1C5.4,0.3,5.7,0.5,6,0.6C6.3,0.8,6.5,1,6.8,1.2S7.2,1.7,7.4,2C7.6,2.3,7.7,2.6,7.8,3
		c0.1,0.3,0.1,0.7,0.1,1c0,0.4,0,0.7-0.1,1C7.7,5.4,7.6,5.7,7.4,6C7.2,6.3,7,6.5,6.8,6.8C6.5,7,6.3,7.2,6,7.4C5.7,7.6,5.4,7.7,5,7.8
		C4.7,7.9,4.4,7.9,4,7.9c-0.1,0-0.3,0-0.4-0.1C3.5,7.8,3.4,7.7,3.3,7.6C3.2,7.5,3.2,7.4,3.1,7.3S3,7.1,3,6.9c0-0.1,0-0.2,0-0.3
		c0-0.1,0.1-0.2,0.1-0.3c0-0.1,0.1-0.1,0.1-0.2c0-0.1,0.1-0.1,0.1-0.2c0-0.1,0.1-0.1,0.1-0.2s0-0.2,0-0.3c0-0.1,0-0.3-0.1-0.4
		S3.3,4.9,3.2,4.8C3.1,4.7,3,4.6,2.9,4.6C2.8,4.5,2.7,4.5,2.5,4.5c-0.1,0-0.2,0-0.3,0c-0.1,0-0.1,0.1-0.2,0.1C2,4.7,1.9,4.7,1.9,4.7
		c-0.1,0-0.1,0.1-0.2,0.1S1.5,4.9,1.4,5C1.3,5,1.2,5,1.1,5C0.9,5,0.8,5,0.7,4.9C0.6,4.9,0.5,4.8,0.4,4.7C0.3,4.6,0.2,4.5,0.2,4.4
		C0.1,4.3,0.1,4.1,0.1,4c0-0.4,0-0.7,0.1-1S0.4,2.3,0.6,2S1,1.5,1.2,1.2S1.7,0.8,2,0.6S2.6,0.3,3,0.2S3.6,0.1,4,0.1z M4,7.4
		c0.3,0,0.6,0,0.9-0.1C5.2,7.2,5.5,7.1,5.7,7C6,6.8,6.2,6.6,6.4,6.4C6.6,6.2,6.8,6,7,5.7c0.1-0.3,0.3-0.5,0.3-0.8
		C7.4,4.6,7.4,4.3,7.4,4c0-0.3,0-0.6-0.1-0.9S7.1,2.5,7,2.3C6.8,2,6.6,1.8,6.4,1.6C6.2,1.4,6,1.2,5.7,1.1C5.5,0.9,5.2,0.8,4.9,0.7
		C4.6,0.6,4.3,0.6,4,0.6s-0.6,0-0.9,0.1S2.5,0.9,2.3,1.1S1.8,1.4,1.6,1.6S1.2,2,1,2.3S0.8,2.8,0.7,3.1S0.6,3.7,0.6,4
		c0,0.1,0,0.1,0,0.2c0,0.1,0.1,0.1,0.1,0.2c0,0,0.1,0.1,0.2,0.1c0.1,0,0.1,0,0.2,0c0.1,0,0.2,0,0.3,0s0.1-0.1,0.2-0.1
		c0.1,0,0.1-0.1,0.2-0.1s0.1-0.1,0.2-0.1C2,4.1,2.1,4.1,2.2,4c0.1,0,0.2,0,0.3,0c0.2,0,0.4,0,0.6,0.1c0.2,0.1,0.3,0.2,0.5,0.3
		c0.1,0.1,0.2,0.3,0.3,0.5C4,5.1,4,5.3,4,5.5c0,0.1,0,0.2,0,0.3c0,0.1-0.1,0.2-0.1,0.3c0,0.1-0.1,0.1-0.1,0.2S3.7,6.4,3.6,6.5
		c0,0.1-0.1,0.1-0.1,0.2c0,0.1,0,0.2,0,0.3c0,0.1,0,0.1,0,0.2c0,0.1,0.1,0.1,0.1,0.2c0,0,0.1,0.1,0.2,0.1C3.9,7.4,3.9,7.4,4,7.4z
		 M2,2.5c0.1,0,0.1,0,0.2,0c0.1,0,0.1,0.1,0.2,0.1c0,0,0.1,0.1,0.1,0.2c0,0.1,0,0.1,0,0.2c0,0.1,0,0.1,0,0.2c0,0.1-0.1,0.1-0.1,0.2
		c0,0-0.1,0.1-0.2,0.1c-0.1,0-0.1,0-0.2,0c-0.1,0-0.1,0-0.2,0c-0.1,0-0.1-0.1-0.2-0.1c0,0-0.1-0.1-0.1-0.2c0-0.1,0-0.1,0-0.2
		c0-0.1,0-0.1,0-0.2c0-0.1,0.1-0.1,0.1-0.2c0,0,0.1-0.1,0.2-0.1C1.9,2.6,2,2.5,2,2.5z M3.5,1.6c0.1,0,0.1,0,0.2,0
		c0.1,0,0.1,0.1,0.2,0.1c0,0,0.1,0.1,0.1,0.2C4,1.9,4,2,4,2.1s0,0.1,0,0.2c0,0.1-0.1,0.1-0.1,0.2c0,0-0.1,0.1-0.2,0.1
		c-0.1,0-0.1,0-0.2,0c-0.1,0-0.1,0-0.2,0c-0.1,0-0.1-0.1-0.2-0.1c0,0-0.1-0.1-0.1-0.2c0-0.1,0-0.1,0-0.2s0-0.1,0-0.2
		c0-0.1,0.1-0.1,0.1-0.2c0,0,0.1-0.1,0.2-0.1C3.4,1.6,3.4,1.6,3.5,1.6z M5,5.5c0.1,0,0.1,0,0.2,0s0.1,0.1,0.2,0.1
		c0,0,0.1,0.1,0.1,0.2c0,0.1,0,0.1,0,0.2c0,0.1,0,0.1,0,0.2c0,0.1-0.1,0.1-0.1,0.2c0,0-0.1,0.1-0.2,0.1S5,6.5,5,6.5
		c-0.1,0-0.1,0-0.2,0S4.7,6.4,4.6,6.3c0,0-0.1-0.1-0.1-0.2s0-0.1,0-0.2c0-0.1,0-0.1,0-0.2s0.1-0.1,0.1-0.2c0,0,0.1-0.1,0.2-0.1
		S4.9,5.5,5,5.5z M5.5,3C5.4,3,5.3,3,5.3,3C5.2,3,5.2,2.9,5.1,2.9c0,0-0.1-0.1-0.1-0.2c0-0.1,0-0.1,0-0.2s0-0.1,0-0.2
		c0-0.1,0.1-0.1,0.1-0.2c0,0,0.1-0.1,0.2-0.1c0.1,0,0.1,0,0.2,0c0.1,0,0.1,0,0.2,0c0.1,0,0.1,0.1,0.2,0.1s0.1,0.1,0.1,0.2
		s0,0.1,0,0.2s0,0.1,0,0.2S5.9,2.8,5.8,2.9c0,0-0.1,0.1-0.2,0.1C5.6,3,5.5,3,5.5,3z M6,4C6,4,6.1,4,6.1,4c0.1,0,0.1,0.1,0.2,0.1
		s0.1,0.1,0.1,0.2c0,0.1,0,0.1,0,0.2c0,0.1,0,0.1,0,0.2S6.3,4.8,6.3,4.8S6.2,4.9,6.1,4.9S6,5,6,5c-0.1,0-0.1,0-0.2,0
		S5.7,4.9,5.6,4.8S5.5,4.7,5.5,4.7c0-0.1,0-0.1,0-0.2c0-0.1,0-0.1,0-0.2c0-0.1,0.1-0.1,0.1-0.2S5.7,4.1,5.8,4C5.8,4,5.9,4,6,4z"/>
</g>
</svg>
