<?xml version="1.0" encoding="utf-8"?>
<!-- Generator: Adobe Illustrator 25.2.0, SVG Export Plug-In . SVG Version: 6.00 Build 0)  -->
<svg version="1.1" id="Layer_1" xmlns="http://www.w3.org/2000/svg" xmlns:xlink="http://www.w3.org/1999/xlink" x="0px" y="0px"
	 viewBox="0 0 16 16" style="enable-background:new 0 0 16 16;" xml:space="preserve">
<style type="text/css">
	.st0{fill:#FFFFFF;}
</style>
<g>
	<path class="st0" d="M14.9,7.1c0,0.8-0.1,1.5-0.4,2.2c-0.2,0.7-0.6,1.4-1,1.9c-0.4,0.6-1,1.1-1.6,1.5c-0.6,0.4-1.3,0.8-2,1V15h3v1
		H3v-1h3v-1.3c-0.7-0.2-1.4-0.5-2-1c-0.6-0.4-1.1-0.9-1.6-1.5C2,10.6,1.7,10,1.4,9.3C1.2,8.6,1.1,7.8,1.1,7.1c0-0.6,0.1-1.3,0.2-1.8
		C1.5,4.6,1.7,4.1,2,3.6s0.7-1,1.1-1.4C3.5,1.7,4,1.4,4.5,1.1C5,0.8,5.6,0.5,6.2,0.4C6.7,0.2,7.4,0.1,8,0.1c0.6,0,1.3,0.1,1.8,0.2
		c0.6,0.2,1.1,0.4,1.7,0.7c0.5,0.3,1,0.7,1.4,1.1C13.3,2.6,13.7,3,14,3.6c0.3,0.5,0.5,1.1,0.7,1.7C14.9,5.8,14.9,6.4,14.9,7.1z
		 M8,1.1c-0.5,0-1.1,0.1-1.6,0.2C5.9,1.5,5.4,1.7,5,1.9S4.2,2.5,3.8,2.9C3.4,3.2,3.1,3.6,2.9,4.1C2.6,4.5,2.4,5,2.3,5.5
		C2.1,6,2,6.5,2,7.1h2.5c0-0.5,0.1-0.9,0.3-1.4C5,5.3,5.2,4.9,5.5,4.6C5.9,4.3,6.2,4,6.6,3.9C7.1,3.7,7.5,3.6,8,3.6s0.9,0.1,1.4,0.3
		c0.4,0.2,0.8,0.4,1.1,0.7c0.3,0.3,0.6,0.7,0.7,1.1c0.2,0.4,0.3,0.9,0.3,1.4H14c0-0.5-0.1-1.1-0.2-1.6c-0.1-0.5-0.3-1-0.6-1.4
		c-0.3-0.4-0.6-0.8-0.9-1.2c-0.4-0.4-0.8-0.7-1.2-0.9s-0.9-0.5-1.4-0.6C9.1,1.2,8.5,1.1,8,1.1z M2.1,8.1C2.2,8.5,2.3,9,2.5,9.4
		c0.2,0.4,0.4,0.8,0.7,1.2c0.3,0.4,0.6,0.7,0.9,1s0.7,0.6,1.1,0.8c0.4,0.2,0.8,0.4,1.3,0.5C7,13,7.5,13,8,13c0.5,0,0.9-0.1,1.4-0.2
		c0.5-0.1,0.9-0.3,1.3-0.5c0.4-0.2,0.8-0.5,1.1-0.8c0.3-0.3,0.7-0.6,0.9-1c0.3-0.4,0.5-0.8,0.7-1.2c0.2-0.4,0.3-0.9,0.4-1.4h-2.5
		c-0.1,0.4-0.3,0.7-0.5,1c-0.2,0.3-0.5,0.6-0.8,0.8c-0.3,0.2-0.6,0.4-1,0.5S8.4,10.5,8,10.5c-0.4,0-0.8-0.1-1.1-0.2
		c-0.4-0.1-0.7-0.3-1-0.5C5.6,9.6,5.4,9.4,5.2,9.1c-0.2-0.3-0.4-0.6-0.5-1H2.1z M10.5,7.1c0-0.3-0.1-0.7-0.2-1
		C10.2,5.8,10,5.5,9.8,5.3C9.5,5.1,9.3,4.9,9,4.8C8.7,4.7,8.3,4.6,8,4.6c-0.3,0-0.7,0.1-1,0.2C6.7,4.9,6.5,5.1,6.2,5.3
		C6,5.5,5.8,5.8,5.7,6.1c-0.1,0.3-0.2,0.6-0.2,1s0.1,0.7,0.2,1C5.8,8.3,6,8.6,6.2,8.8C6.5,9,6.7,9.2,7,9.4c0.3,0.1,0.6,0.2,1,0.2
		c0.3,0,0.7-0.1,1-0.2C9.3,9.2,9.5,9,9.8,8.8C10,8.6,10.2,8.3,10.3,8C10.4,7.7,10.5,7.4,10.5,7.1z M9,15v-1.1C8.7,14,8.3,14,8,14
		c-0.3,0-0.7,0-1-0.1V15H9z"/>
</g>
</svg>
