<?xml version="1.0" encoding="utf-8"?>
<!-- Generator: Adobe Illustrator 25.2.0, SVG Export Plug-In . SVG Version: 6.00 Build 0)  -->
<svg version="1.1" id="Layer_1" xmlns="http://www.w3.org/2000/svg" xmlns:xlink="http://www.w3.org/1999/xlink" x="0px" y="0px"
	 viewBox="0 0 8 8" style="enable-background:new 0 0 8 8;" xml:space="preserve">
<style type="text/css">
	.st0{fill:#FFFFFF;}
</style>
<g>
	<path class="st0" d="M6,0c0.1,0,0.1,0,0.2,0c0.1,0,0.1,0.1,0.2,0.1s0.1,0.1,0.1,0.2s0,0.1,0,0.2v3.6c0,0.1,0,0.2,0,0.2
		c0,0.1,0.1,0.1,0.1,0.2c0,0.1,0.1,0.1,0.1,0.2c0,0.1,0.1,0.1,0.1,0.2S6.9,5,7,5.1s0,0.2,0,0.3v1.1c0,0.1,0,0.1,0,0.2
		c0,0.1-0.1,0.1-0.1,0.2c0,0-0.1,0.1-0.2,0.1C6.6,7,6.6,7,6.5,7H3v0.5c0,0.1,0,0.2-0.1,0.3S2.8,7.9,2.7,8C2.6,8,2.6,8,2.5,8
		C2.4,8,2.2,8,2.1,7.9L1,6.7V0H6z M2.5,6.1c0-0.1,0-0.2,0-0.3c0-0.1,0.1-0.2,0.1-0.2c0-0.1,0.1-0.1,0.1-0.2s0.1-0.1,0.1-0.2
		c0-0.1,0.1-0.1,0.1-0.2C3,5,3,5,3,4.9V2.4L1.5,0.9v5.6l1,1V6.1z M6.5,5.4c0-0.1,0-0.2,0-0.2S6.4,5,6.4,5c0-0.1-0.1-0.1-0.1-0.2
		S6.2,4.7,6.1,4.7c0-0.1-0.1-0.1-0.1-0.2c0-0.1,0-0.2,0-0.3V0.5H1.9L3.4,2c0,0,0.1,0.1,0.1,0.2c0,0.1,0,0.1,0,0.2v2.5
		c0,0.1,0,0.2,0,0.3c0,0.1-0.1,0.2-0.1,0.2c0,0.1-0.1,0.1-0.1,0.2S3.2,5.7,3.1,5.7c0,0.1-0.1,0.1-0.1,0.2C3,6,3,6,3,6.1v0.4h3.5V5.4
		z"/>
</g>
</svg>
